<svg width="319" height="161" viewBox="0 0 319 161" fill="none" xmlns="http://www.w3.org/2000/svg">
<path d="M44.1777 132.975C41.2155 133.658 38.1393 134 34.9492 134C22.1888 134 15.8086 127.791 15.8086 115.372C15.8086 103.865 22.1888 98.1113 34.9492 98.1113C38.1393 98.1113 41.2155 98.4531 44.1777 99.1367V106.314C41.2155 105.631 38.3672 105.289 35.6328 105.289C28.4551 105.289 24.8662 108.65 24.8662 115.372C24.8662 123.006 28.4551 126.822 35.6328 126.822C38.3672 126.822 41.2155 126.48 44.1777 125.797V132.975ZM57.5078 115.919C57.5078 123.416 60.4131 127.164 66.2236 127.164C72.0342 127.164 74.9395 123.416 74.9395 115.919C74.9395 108.604 72.0342 104.947 66.2236 104.947C60.4131 104.947 57.5078 108.604 57.5078 115.919ZM48.4502 116.056C48.4502 104.024 54.3747 98.0088 66.2236 98.0088C78.0726 98.0088 83.9971 104.024 83.9971 116.056C83.9971 128.064 78.0726 134.068 66.2236 134.068C54.4202 134.068 48.4958 128.064 48.4502 116.056ZM90.833 132.291V124.771C94.8206 126.367 99.4235 127.164 104.642 127.164C108.538 127.164 110.486 125.911 110.486 123.404C110.486 121.012 109.176 119.815 106.556 119.815H100.062C92.7699 119.815 89.124 116.227 89.124 109.049C89.124 101.529 94.4447 97.7695 105.086 97.7695C109.598 97.7695 113.847 98.4531 117.835 99.8203V107.34C113.847 105.745 109.518 104.947 104.847 104.947C99.9476 104.947 97.498 106.201 97.498 108.707C97.498 111.1 98.9222 112.296 101.771 112.296H107.581C115.556 112.296 119.544 115.885 119.544 123.062C119.544 130.582 114.463 134.342 104.3 134.342C99.3096 134.342 94.8206 133.658 90.833 132.291ZM125.901 134V98.1113H132.908L133.968 103.307C137.181 99.8431 141.043 98.1113 145.555 98.1113C150.066 98.1113 153.154 99.752 154.817 103.033C158.486 99.752 162.326 98.1113 166.336 98.1113C174.585 98.1113 178.709 102.657 178.709 111.749V134H169.651V111.407C169.651 107.42 167.851 105.426 164.251 105.426C161.562 105.426 158.976 106.633 156.492 109.049V134H147.435V111.51C147.435 107.454 145.771 105.426 142.444 105.426C139.801 105.426 137.306 106.633 134.959 109.049V134H125.901ZM194.637 115.919C194.637 123.416 197.542 127.164 203.353 127.164C209.163 127.164 212.068 123.416 212.068 115.919C212.068 108.604 209.163 104.947 203.353 104.947C197.542 104.947 194.637 108.604 194.637 115.919ZM185.579 116.056C185.579 104.024 191.504 98.0088 203.353 98.0088C215.201 98.0088 221.126 104.024 221.126 116.056C221.126 128.064 215.201 134.068 203.353 134.068C191.549 134.068 185.625 128.064 185.579 116.056ZM227.962 134V98.1113H234.969L236.097 103.375C239.537 99.8659 243.457 98.1113 247.854 98.1113C256.354 98.1113 260.604 102.532 260.604 111.373V134H251.546V111.373C251.546 107.408 249.575 105.426 245.633 105.426C242.693 105.426 239.822 106.599 237.02 108.946V134H227.962ZM276.531 115.919C276.531 123.416 279.437 127.164 285.247 127.164C291.058 127.164 293.963 123.416 293.963 115.919C293.963 108.604 291.058 104.947 285.247 104.947C279.437 104.947 276.531 108.604 276.531 115.919ZM267.474 116.056C267.474 104.024 273.398 98.0088 285.247 98.0088C297.096 98.0088 303.021 104.024 303.021 116.056C303.021 128.064 297.096 134.068 285.247 134.068C273.444 134.068 267.519 128.064 267.474 116.056Z" fill="#151F2D"/>
<g clip-path="url(#clip0)">
<path d="M191.414 19.0678L191.109 19.118C183.995 5.57031 168.446 -2.3576 152.439 0.652999C136.432 3.6636 124.998 16.7095 123.474 31.9633L123.169 32.0134C120.425 32.5152 118.595 35.1746 119.154 37.8841L121.695 51.0304C122.203 53.7399 124.897 55.5463 127.641 54.9943L129.013 54.7435C136.737 66.535 151.168 73.1583 166.006 70.3484C180.845 67.5385 191.77 56.0982 194.514 42.3498L195.886 42.0989C198.63 41.5972 200.459 38.9378 199.9 36.2283L197.36 23.082C196.851 20.3223 194.158 18.5159 191.414 19.0678ZM189.636 42.0488C186.18 52.636 177.135 61.9187 164.431 64.0262C150.711 66.2841 139.379 59.3095 133.484 52.8368C131.452 50.6792 126.116 42.8516 127.336 36.3788C127.59 34.9739 128.301 33.0671 130.029 31.4615C136.432 25.6912 144.969 34.3717 157.266 31.1604C168.903 28.1498 171.799 18.3152 181.302 19.7201C181.759 19.7703 185.113 20.7237 187.298 23.5336C190.804 27.9491 191.211 37.1315 189.636 42.0488Z" fill="#151F2D"/>
<path d="M174.592 26.0417C174.338 26.0919 174.135 26.1922 173.881 26.2926C175.71 29.9053 177.133 33.9696 177.997 38.4353C178.861 42.8007 179.064 47.0155 178.759 50.9293C178.962 50.9293 179.217 50.9293 179.42 50.8792C182.57 50.277 184.044 44.2558 182.723 37.3816C181.402 30.5074 177.743 25.4396 174.592 26.0417Z" fill="#151F2D"/>
</g>
<defs>
<clipPath id="clip0">
<rect width="81" height="71" fill="white" transform="translate(119)"/>
</clipPath>
</defs>
</svg>
